<svg xmlns="http://www.w3.org/2000/svg" width="36" height="25.593" viewBox="0 0 36 25.593">
  <path id="CorreoSVG" d="M18.9-1194.407a2.905,2.905,0,0,1-2.9-2.9V-1217.1a2.905,2.905,0,0,1,2.9-2.9H49.1a2.906,2.906,0,0,1,2.9,2.9v19.788a2.906,2.906,0,0,1-2.9,2.9ZM17.161-1217.1v19.788a1.744,1.744,0,0,0,1.742,1.742H49.1a1.743,1.743,0,0,0,1.741-1.742V-1217.1a1.732,1.732,0,0,0-.131-.663l-14.576,12.7a3.242,3.242,0,0,1-2.131.769,3.245,3.245,0,0,1-2.131-.768l-14.577-12.7A1.73,1.73,0,0,0,17.161-1217.1Zm15.471,11.167a2.175,2.175,0,0,0,2.737,0l14.563-12.695a1.73,1.73,0,0,0-.834-.213H18.9a1.733,1.733,0,0,0-.836.214Z" transform="translate(-16 1220)" fill="#8a8a8a"/>
</svg>
