<svg xmlns="http://www.w3.org/2000/svg" width="627" height="402.5" viewBox="0 0 627 402.5">
  <g id="Grupo_73" data-name="Grupo 73" transform="translate(-5621 25.5)">
    <g id="Grupo_43" data-name="Grupo 43" transform="translate(227.441 5)">
      <g id="Grupo_12" data-name="Grupo 12" transform="translate(5619.258 -17.642)">
        <path id="Sustracci贸n_2" data-name="Sustracci贸n 2" d="M142.564,203.388h0a94.556,94.556,0,0,0,8.578-12.322c8.372-14.211,12.357-26.8,12.357-59.886a287.635,287.635,0,0,0-3.1-44.93c-2.121-13.19-5.236-23.339-9.257-30.165a87.892,87.892,0,0,0-32.32-32.319c-14.778-8.706-30.884-13.308-46.578-13.308H0V0H82.7a99.994,99.994,0,0,1,24.7,3.1,87.544,87.544,0,0,1,22.833,9.257,87.531,87.531,0,0,1,32.319,32.32c4.006,6.8,7.121,17.109,9.258,30.641a295.542,295.542,0,0,1,3.1,45.405c0,16.351-.956,27.716-3.1,36.85-2.064,8.791-5.193,15.187-9.257,22.085a94.016,94.016,0,0,1-9.106,12.957A83.584,83.584,0,0,1,142.564,203.388Z" transform="translate(0 0)" fill="#fff" stroke="rgba(0,0,0,0)" stroke-width="1"/>
      </g>
      <g id="Grupo_42" data-name="Grupo 42" transform="translate(5633.517 -30)">
        <path id="Sustracci贸n_2-2" data-name="Sustracci贸n 2" d="M142.564,203.388h0a94.556,94.556,0,0,0,8.578-12.322c8.372-14.211,12.357-26.8,12.357-59.886a287.635,287.635,0,0,0-3.1-44.93c-2.121-13.19-5.236-23.339-9.257-30.165a87.892,87.892,0,0,0-32.32-32.319c-14.778-8.706-30.884-13.308-46.578-13.308H0V0H82.7a99.994,99.994,0,0,1,24.7,3.1,87.544,87.544,0,0,1,22.833,9.257,87.531,87.531,0,0,1,32.319,32.32c4.006,6.8,7.121,17.109,9.258,30.641a295.542,295.542,0,0,1,3.1,45.405c0,16.351-.956,27.716-3.1,36.85-2.064,8.791-5.193,15.187-9.257,22.085a94.016,94.016,0,0,1-9.106,12.957A83.584,83.584,0,0,1,142.564,203.388Z" transform="translate(0 0)" fill="#fff" stroke="rgba(0,0,0,0)" stroke-width="1"/>
      </g>
      <path id="Trazado_17" data-name="Trazado 17" d="M22,100.027V-125.258h82.7c16.419,0,32.644,5.1,46.578,13.308A87.527,87.527,0,0,1,183.6-79.631c8.209,13.934,13.308,41.474,13.308,75.1s-5.1,45.952-13.308,59.886a87.527,87.527,0,0,1-32.319,32.319A91.907,91.907,0,0,1,104.7,100.027Z" transform="translate(5583 119.973)" fill="#fff"/>
    </g>
    <text id="datamigo" transform="translate(5621 346)" fill="#fff" font-size="125" font-family="MontserratAlternates-Light, Montserrat Alternates" font-weight="300"><tspan x="0" y="0">datamigo</tspan></text>
  </g>
</svg>
