<svg xmlns="http://www.w3.org/2000/svg" width="280.076" height="80.579" viewBox="0 0 280.076 80.579">
  <g id="Logo1SVG" transform="translate(-1.395 0.579)">
    <text id="atamigo" transform="translate(68.471 55.849)" fill="#fff" font-size="49" font-family="MontserratAlternates-Light, Montserrat Alternates" font-weight="300"><tspan x="0" y="0">atamigo</tspan></text>
    <g id="LogoSVG" transform="matrix(0.985, -0.174, 0.174, 0.985, 0, 9.866)">
      <path id="Capa3" d="M40.011,57.094h0a27.138,27.138,0,0,0,2.4-3.507c2.348-3.985,3.443-7.478,3.443-16.758a80.929,80.929,0,0,0-.844-12.6,24.92,24.92,0,0,0-2.6-8.444A24.808,24.808,0,0,0,33.321,6.69a25.816,25.816,0,0,0-13.056-3.7H0V0H23.188a28.276,28.276,0,0,1,6.95.909,24.292,24.292,0,0,1,6.365,2.6,25.188,25.188,0,0,1,5.131,3.9A25.426,25.426,0,0,1,45.6,12.536a25.65,25.65,0,0,1,2.6,8.639,83.1,83.1,0,0,1,.844,12.731A46.029,46.029,0,0,1,48.2,44.233,20.782,20.782,0,0,1,45.6,50.4a26.317,26.317,0,0,1-2.533,3.637A23.7,23.7,0,0,1,40.011,57.094Z" transform="translate(3.739 4.028)" fill="#fff" stroke="rgba(0,0,0,0)" stroke-width="1"/>
      <path id="Capa2" d="M39.981,57.039h0a26.518,26.518,0,0,0,2.406-3.456c2.348-3.985,3.465-7.515,3.465-16.795a80.665,80.665,0,0,0-.869-12.6,25.03,25.03,0,0,0-2.6-8.46,24.649,24.649,0,0,0-9.064-9.064A25.879,25.879,0,0,0,20.26,2.932H0V0H23.193a28.043,28.043,0,0,1,6.926.869,24.551,24.551,0,0,1,6.4,2.6,24.547,24.547,0,0,1,9.064,9.064,25.346,25.346,0,0,1,2.6,8.593,82.883,82.883,0,0,1,.869,12.734,45.835,45.835,0,0,1-.869,10.334,20.922,20.922,0,0,1-2.6,6.194,26.365,26.365,0,0,1-2.554,3.634A23.441,23.441,0,0,1,39.981,57.039Z" transform="translate(7.766 0)" fill="#fff" stroke="rgba(0,0,0,0)" stroke-width="1"/>
      <path id="Capa1" d="M0,63.18V0H23.193A26.029,26.029,0,0,1,36.255,3.732,24.546,24.546,0,0,1,45.319,12.8c2.3,3.908,3.732,11.631,3.732,21.06s-1.43,12.887-3.732,16.795a24.547,24.547,0,0,1-9.064,9.064A25.775,25.775,0,0,1,23.193,63.18Z" transform="translate(0 8.036)" fill="#fff"/>
    </g>
  </g>
</svg>
