<svg xmlns="http://www.w3.org/2000/svg" width="609.708" height="426.207" viewBox="0 0 609.708 426.207">
  <g id="LogoSVG" transform="translate(-5627.076 56.655)">
    <g id="LogoSVG-2" data-name="LogoSVG" transform="matrix(0.985, -0.174, 0.174, 0.985, 5811.727, -20.429)">
      <path id="Capa3" d="M140.566,200.23h0a95.342,95.342,0,0,0,8.443-12.323c8.249-14,12.094-26.273,12.094-58.875,0-16.771-.94-31.667-2.967-44.27-2.09-13-5.166-22.94-9.128-29.666A87.156,87.156,0,0,0,117.062,23.15,90.7,90.7,0,0,0,71.195,10.142H0V-.355H81.463A99.34,99.34,0,0,1,105.88,2.84a85.345,85.345,0,0,1,22.363,9.128A88.493,88.493,0,0,1,146.271,25.66a89.328,89.328,0,0,1,13.92,18.028c3.947,6.7,7.023,17.018,9.128,30.35,2.027,12.837,2.967,27.879,2.967,44.727,0,16.11-.854,27.284-2.967,36.283-2.033,8.662-5.124,14.882-9.128,21.679a92.459,92.459,0,0,1-8.9,12.779A83.267,83.267,0,0,1,140.566,200.23Z" transform="translate(13.138 13.509)" fill="#ffffff" stroke="rgba(0,0,0,0)" stroke-width="1"/>
      <path id="Capa2" d="M140.464,200.392h0a93.163,93.163,0,0,0,8.451-12.141c8.249-14,12.175-26.4,12.175-59a283.4,283.4,0,0,0-3.054-44.268c-2.09-13-5.159-23-9.121-29.721a86.6,86.6,0,0,0-31.843-31.843C102.511,14.836,86.642,10.3,71.18,10.3H0V0H81.482a98.521,98.521,0,0,1,24.332,3.054,86.254,86.254,0,0,1,22.5,9.121,86.241,86.241,0,0,1,31.843,31.843c3.947,6.7,7.016,16.857,9.121,30.189a291.19,291.19,0,0,1,3.055,44.736c0,16.11-.942,27.308-3.055,36.307-2.033,8.662-5.117,14.963-9.121,21.76a92.628,92.628,0,0,1-8.972,12.766A82.354,82.354,0,0,1,140.464,200.392Z" transform="translate(27.284 -1)" fill="#ffffff" stroke="rgba(0,0,0,0)" stroke-width="1"/>
      <path id="Capa1" d="M22,96.708V-125.258h81.481c16.177,0,32.163,5.023,45.892,13.112A86.238,86.238,0,0,1,181.216-80.3C189.3-66.574,194.328-39.44,194.328-6.314s-5.023,45.275-13.112,59a86.238,86.238,0,0,1-31.843,31.843,90.553,90.553,0,0,1-45.892,12.175Z" transform="translate(-22 152.495)" fill="#ffffff"/>
    </g>
    <path id="Titulo" d="M64.48-92.008v42.284c-5.208-9.8-14.88-15.5-26.412-15.5-18.228,0-31.992,13.392-31.992,32.86C6.076-13.02,19.84.5,38.068.5,49.724.5,59.52-5.208,64.6-15.252V0H70.68V-92.008ZM38.44-5.084c-14.88,0-26.04-11.036-26.04-27.28s11.16-27.28,26.04-27.28,26.04,11.036,26.04,27.28S53.32-5.084,38.44-5.084ZM148.18-64.728v15c-5.208-9.8-14.88-15.5-26.412-15.5-18.228,0-31.992,13.392-31.992,32.86C89.776-13.02,103.54.5,121.768.5c11.656,0,21.452-5.7,26.536-15.748V0h6.076V-64.728ZM122.14-5.084c-14.88,0-26.04-11.036-26.04-27.28s11.16-27.28,26.04-27.28,26.04,11.036,26.04,27.28S137.02-5.084,122.14-5.084Zm85.932-3.348a14.877,14.877,0,0,1-10.044,3.6c-7.936,0-12.028-4.588-12.028-12.9V-59.4h20.584v-5.332H186V-78.864h-6.2v61.752C179.8-6.2,186,.5,197.408.5c4.836,0,10.044-1.488,13.268-4.588Zm68.82-56.3v15c-5.208-9.8-14.88-15.5-26.412-15.5-18.228,0-31.992,13.392-31.992,32.86C218.488-13.02,232.252.5,250.48.5c11.656,0,21.452-5.7,26.536-15.748V0h6.076V-64.728ZM250.852-5.084c-14.88,0-26.04-11.036-26.04-27.28s11.16-27.28,26.04-27.28,26.04,11.036,26.04,27.28S265.732-5.084,250.852-5.084Zm139-60.14c-12.524,0-21.948,6.2-26.164,15.624-3.472-10.292-12.028-15.624-23.684-15.624-11.78,0-20.584,5.332-24.8,14.384V-64.728h-5.952V0h6.2V-34.472c0-15.376,9.052-25.172,23.684-25.172,12.648,0,20.212,7.688,20.212,22.32V0h6.2V-34.472c0-15.376,9.052-25.172,23.684-25.172,12.648,0,20.212,7.688,20.212,22.32V0h6.2V-37.82C415.648-55.924,405.48-65.224,389.856-65.224Zm54.436-15.252a5.028,5.028,0,0,0,5.084-5.084,5,5,0,0,0-5.084-4.96,5.107,5.107,0,0,0-5.084,5.084A5,5,0,0,0,444.292-80.476ZM441.192,0h6.2V-64.728h-6.2Zm84.692-64.728V-50.1c-5.208-9.672-15.252-15.128-27.156-15.128-18.352,0-32.24,12.9-32.24,31.372s13.888,31.5,32.24,31.5c11.656,0,21.576-5.332,26.908-14.756V-6.2c0,17.236-8.06,25.172-25.3,25.172-10.416,0-19.716-3.472-26.164-9.424l-3.348,4.712c6.572,6.572,17.856,10.292,29.636,10.292,20.832,0,31.372-9.8,31.372-31.5V-64.728ZM499.224-7.936c-15.252,0-26.412-10.664-26.412-25.916s11.16-25.792,26.412-25.792c15.376,0,26.536,10.54,26.536,25.792S514.6-7.936,499.224-7.936ZM583.42.5c18.6,0,32.364-13.64,32.364-32.86s-13.764-32.86-32.364-32.86-32.364,13.64-32.364,32.86S564.82.5,583.42.5Zm0-5.58c-14.88,0-26.04-11.036-26.04-27.28s11.16-27.28,26.04-27.28,26.04,11.036,26.04,27.28S598.3-5.084,583.42-5.084Z" transform="translate(5621 345)" fill="#ffffff"/>
  </g>
</svg>
